<svg xmlns="http://www.w3.org/2000/svg" viewBox="0 0 100 100" width="100" height="100">
  <defs>
    <linearGradient id="lionGrad" x1="0%" y1="0%" x2="100%" y2="100%">
      <stop offset="0%" stop-color="#f59e0b" />
      <stop offset="100%" stop-color="#b45309" />
    </linearGradient>
  </defs>
  <circle cx="50" cy="50" r="48" fill="#2d1a04" stroke="url(#lionGrad)" stroke-width="3"/>
  <path d="M50 15 C40 10 25 20 25 35 C15 40 15 60 25 65 C25 80 40 90 50 85 C60 90 75 80 75 65 C85 60 85 40 75 35 C75 20 60 10 50 15 Z" fill="url(#lionGrad)"/>
  <circle cx="33" cy="30" r="7" fill="#b45309"/>
  <circle cx="33" cy="30" r="4" fill="#f43f5e"/>
  <circle cx="67" cy="30" r="7" fill="#b45309"/>
  <circle cx="67" cy="30" r="4" fill="#f43f5e"/>
  <circle cx="50" cy="52" r="20" fill="#f59e0b"/>
  <ellipse cx="50" cy="58" rx="8" ry="6" fill="#fef08a"/>
  <polygon points="50,56 46,52 54,52" fill="#b45309"/>
  <circle cx="43" cy="47" r="3" fill="#000"/>
  <circle cx="57" cy="47" r="3" fill="#000"/>
</svg>
